<svg xmlns="http://www.w3.org/2000/svg" version="1.1" xmlns:xlink="http://www.w3.org/1999/xlink" xmlns:svgjs="http://svgjs.dev/svgjs" width="100%" height="100%" viewBox="0 0 1000 600"><rect width="1000" height="600" x="0" y="0" fill="#54ed39"/><g><circle r="166.66666666666666" cx="318.1349741617838" cy="293.79649933596994" fill="#54ed39" transform="matrix(1.1915247415938783,0,0,1.1915247415938783,10.625452619747477,-50.06580385876373)"/><path d="M121.70295173851133 301.25594067085535L121.70295173851133 301.25594067085535Q110.3325800968386 302.83743121094415 102.861400648833 302.83743121094415L102.861400648833 302.83743121094415Q100.29829529075809 302.83743121094415 100.29829529075809 300.8742015749719L100.29829529075809 300.8742015749719Q100.29829529075809 296.3478665809247 106.48792205972623 291.3579912561618Q112.67754882869437 286.3408488531216 126.61102582844202 282.6052591291188L126.61102582844202 282.6052591291188Q132.90972091051972 260.21898786337937 140.9535090023506 241.5683063216428L140.9535090023506 241.5683063216428Q121.32121264262784 242.54992113962894 108.7510895567498 254.54743558168173L108.7510895567498 254.54743558168173Q105.61537555484966 257.6831495835819 103.65214591887738 259.4555096716124Q101.68891628290511 261.2006026813655 100.2164940559259 261.2006026813655Q98.7440718289467 261.2006026813655 97.35345083679968 258.85563394950975Q95.99009692293004 256.510665217654 95.99009692293004 252.58420594570947L95.99009692293004 252.58420594570947Q96.1809664708718 237.45097750175648 116.41313855269716 228.04383549605603Q136.61804355624514 218.60942641207816 166.28462472204836 218.80029596001992L166.28462472204836 218.80029596001992L225.18151380121654 219.78191077800605Q230.47132698703072 219.78191077800605 230.47132698703072 223.89923959789235L230.47132698703072 223.89923959789235Q230.47132698703072 225.09899104209762 228.88983644694193 228.12563673088823Q227.33561298513058 231.1795494979562 226.1631286192027 234.69700259573983L226.1631286192027 234.69700259573983Q223.60002326112775 241.78644294786196 215.14722899513606 241.78644294786196L215.14722899513606 241.78644294786196L208.87580099133572 241.78644294786196L182.75394000159355 241.5683063216428L167.647978635918 241.5683063216428Q166.06648809582924 252.77507549365123 158.21356955194014 278.106191213349L158.21356955194014 278.106191213349L194.15157872154367 278.6787998571742Q197.28729272344384 278.6787998571742 197.28729272344384 282.41438958117703L197.28729272344384 282.41438958117703Q197.28729272344384 283.5868739471049 196.30567790545769 286.53171840106336Q195.32406308747156 289.4765628550217 194.5333178174272 292.6122768569219L194.5333178174272 292.6122768569219Q192.97909435561579 299.10184148694134 187.88015071774336 299.10184148694134L187.88015071774336 299.10184148694134L158.02270000399838 297.7384875730717L155.48686172420088 297.7384875730717Q154.2871102799956 297.7384875730717 152.7328868181842 297.9293571210135L152.7328868181842 297.9293571210135Q142.50773246416196 335.4215897524284 142.50773246416196 357.2079852960651L142.50773246416196 357.2079852960651Q142.50773246416196 368.79649356395703 119.9305916504808 368.79649356395703L119.9305916504808 368.79649356395703Q115.02251756055014 368.79649356395703 114.14997105567357 363.7793511609168Q113.27742455079701 358.7894758361539 113.27742455079701 350.52755111810393L113.27742455079701 350.52755111810393Q113.27742455079701 332.85848439435347 121.70295173851133 301.25594067085535ZM282.3060427923542 349.16419720423426L282.3060427923542 349.16419720423426Q266.79107525251777 367.43313965008736 245.08648094371318 367.43313965008736Q223.40915371318604 367.43313965008736 212.61139071533853 356.3354387911886Q201.81362771749104 345.23773793228975 202.00449726543278 328.74115557446714L202.00449726543278 328.74115557446714Q201.81362771749104 305.3732694907417 216.72871953522483 288.4949480370356Q231.6438113529586 271.61662658332955 255.80244270672853 271.61662658332955L255.80244270672853 271.61662658332955Q266.79107525251777 271.61662658332955 273.471509430479 274.3706014893462L273.471509430479 274.3706014893462Q285.06001769837087 279.0878060313351 285.06001769837087 283.20513485122143L285.06001769837087 283.20513485122143Q285.06001769837087 286.3408488531216 268.86337320159964 286.44991716623116Q252.66672870482836 286.53171840106336 241.75989739387128 297.62941925996216Q230.8530660829142 308.72712011886097 230.8530660829142 325.605441572567L230.8530660829142 325.605441572567Q230.8530660829142 334.43997493444226 236.06107803389622 340.43873215546864Q241.2690899848782 346.4102222982176 250.78530030368827 346.4102222982176Q260.3015106224983 346.4102222982176 266.600205704576 342.4837630262731L266.600205704576 342.4837630262731Q252.66672870482836 333.0766210205726 252.66672870482836 315.189417670603L252.66672870482836 315.189417670603Q252.44859207860924 305.78227566490256 259.4289641176217 298.0111583558456Q266.40933615663425 290.2673081250661 277.28890038931394 290.15823981195655Q288.19573170027104 290.07643857712435 292.91293624225995 296.15699703298293Q297.6028737059715 302.2375554888415 297.6028737059715 311.75376580765146Q297.6028737059715 321.29724320473895 293.1038057902017 331.8768695763673L293.1038057902017 331.8768695763673L294.27629015612956 331.8768695763673Q302.91995397006303 331.6860000284256 309.1913819738634 325.7963111205088L309.1913819738634 325.7963111205088Q311.5636177839965 323.45134238865296 313.2269095589175 321.67898230062247Q314.8902013338385 319.90662221259197 316.662561421869 319.90662221259197L316.662561421869 319.90662221259197Q319.41653632788564 319.90662221259197 319.41653632788564 326.3961868426114L319.41653632788564 326.3961868426114Q319.41653632788564 338.36643420638677 312.32709597576354 344.36519142741315Q305.26492270191886 350.3366815701622 296.73032720109495 350.3366815701622Q288.19573170027104 350.3366815701622 282.3060427923542 349.16419720423426ZM280.5336827043237 326.3961868426114L280.5336827043237 326.3961868426114Q283.8602662541656 319.33401356876675 283.8602662541656 312.6535793908055Q283.8602662541656 305.9731452128443 279.55206788633757 305.9731452128443L279.55206788633757 305.9731452128443Q277.779707798307 305.9731452128443 276.6072234323791 308.53625057091926Q275.43473906645124 311.07208885071674 275.43473906645124 313.44432466084993L275.43473906645124 313.44432466084993Q275.43473906645124 321.29724320473895 280.5336827043237 326.3961868426114ZM388.8930517786822 349.16419720423426L388.8930517786822 349.16419720423426Q373.4053513171232 367.43313965008736 351.70075700831853 367.43313965008736Q329.996162699514 367.43313965008736 319.1983997016665 356.3354387911886Q308.40063670381903 345.23773793228975 308.61877333003815 328.74115557446714L308.61877333003815 328.74115557446714Q308.40063670381903 305.3732694907417 323.34299559983015 288.4949480370356Q338.25808741756396 271.61662658332955 362.38945169305646 271.61662658332955L362.38945169305646 271.61662658332955Q373.4053513171232 271.61662658332955 380.0585184168069 274.3706014893462L380.0585184168069 274.3706014893462Q391.64702668469886 279.0878060313351 391.64702668469886 283.20513485122143L391.64702668469886 283.20513485122143Q391.64702668469886 286.3408488531216 375.45038218792763 286.44991716623116Q359.2537376911563 286.53171840106336 348.37417345847666 297.62941925996216Q337.4673421475196 308.72712011886097 337.4673421475196 325.605441572567L337.4673421475196 325.605441572567Q337.4673421475196 334.43997493444226 342.67535409850154 340.43873215546864Q347.8833660494836 346.4102222982176 357.39957636829365 346.4102222982176Q366.9157866871037 346.4102222982176 373.18721469090394 342.4837630262731L373.18721469090394 342.4837630262731Q359.2537376911563 333.0766210205726 359.2537376911563 315.189417670603L359.2537376911563 315.189417670603Q359.0628681432146 305.78227566490256 366.0432401822271 298.0111583558456Q372.99634514296224 290.2673081250661 383.9031764539193 290.15823981195655Q394.782740686599 290.07643857712435 399.499945228588 296.15699703298293Q404.21714977057684 302.2375554888415 404.21714977057684 311.75376580765146Q404.21714977057684 321.29724320473895 399.6908147765297 331.8768695763673L399.6908147765297 331.8768695763673L400.89056622073497 331.8768695763673Q409.506962956391 331.6860000284256 415.8056580384688 325.7963111205088L415.8056580384688 325.7963111205088Q418.1506267703245 323.45134238865296 419.81391854524543 321.67898230062247Q421.5044773984438 319.90662221259197 423.249570408197 319.90662221259197L423.249570408197 319.90662221259197Q426.0035453142136 319.90662221259197 426.0035453142136 326.3961868426114L426.0035453142136 326.3961868426114Q426.0035453142136 338.36643420638677 418.94137204036883 344.36519142741315Q411.87919876652427 350.3366815701622 403.34460326570024 350.3366815701622Q394.782740686599 350.3366815701622 388.8930517786822 349.16419720423426ZM387.147958768929 326.3961868426114L387.147958768929 326.3961868426114Q390.474542318771 319.33401356876675 390.474542318771 312.6535793908055Q390.474542318771 305.9731452128443 386.16634395094286 305.9731452128443L386.16634395094286 305.9731452128443Q384.39398386291236 305.9731452128443 383.2214994969845 308.53625057091926Q382.02174805277923 311.07208885071674 382.02174805277923 313.44432466084993L382.02174805277923 313.44432466084993Q382.02174805277923 321.29724320473895 387.147958768929 326.3961868426114ZM536.7351501987052 319.52488311670845L536.7351501987052 319.52488311670845Q540.2798703747663 319.52488311670845 540.2798703747663 328.55028602652544L540.2798703747663 328.55028602652544Q540.2798703747663 333.4583601164561 536.1352744766026 340.43873215546864Q532.0179456567164 347.39183711620376 525.4465797918648 353.19972478928844Q518.875213927013 358.9803453840956 510.83142583518224 362.7159351080985Q502.760370665074 366.4515248321012 495.1255887474041 366.4515248321012L495.1255887474041 366.4515248321012Q484.3278257495565 366.4515248321012 480.9739751214373 348.78245810835085L480.9739751214373 348.78245810835085Q469.19459730560357 367.43313965008736 446.0448478480972 367.43313965008736L446.0448478480972 367.43313965008736Q431.89323422213045 367.43313965008736 423.4677070344161 358.7894758361539Q415.0149127684243 350.1458120222204 415.20578231636614 337.76655848428413L415.20578231636614 337.76655848428413Q415.20578231636614 304.3916546727555 437.40118403416375 285.1683644871937L437.40118403416375 285.1683644871937Q452.6980149477811 271.998365679213 469.19459730560357 271.998365679213L469.19459730560357 271.998365679213Q476.6657767536092 271.998365679213 480.9739751214373 273.19811712341834L480.9739751214373 273.19811712341834L485.50031011548447 274.3706014893462Q493.5440982073153 236.46936268377038 504.1509916572211 223.7083700499506L504.1509916572211 223.7083700499506Q507.66844475500466 219.40017168212256 511.21316493106576 219.40017168212256L511.21316493106576 219.40017168212256Q516.9119842910408 219.40017168212256 521.8200583809714 227.25309022601164L521.8200583809714 227.25309022601164Q526.1282567487996 233.7153877777537 526.1282567487996 238.43259231974264Q526.1282567487996 243.14979686173157 524.7649028349299 247.67613185577875Q523.3742818427828 252.1751997715486 521.3292509719784 256.0198578086609Q519.2569530228966 259.8372487674959 516.7211147430991 263.46377017838915Q514.1580093850241 267.09029158928234 511.5949040269493 270.82588131328515L511.5949040269493 270.82588131328515Q505.92335174525147 292.03966821309666 503.1693768392348 318.3523987507806L503.1693768392348 318.3523987507806Q502.3786315691905 325.7963111205088 502.3786315691905 330.32264611455594L502.3786315691905 330.32264611455594Q502.3786315691905 343.8743840184201 506.90496656323774 343.8743840184201L506.90496656323774 343.8743840184201Q512.0039102011102 343.8743840184201 531.6362065608328 323.45134238865296L531.6362065608328 323.45134238865296Q535.1536596586164 319.52488311670845 536.7351501987052 319.52488311670845ZM444.081618212125 331.3042609325421L444.081618212125 331.3042609325421Q444.081618212125 346.4102222982176 455.261120305856 346.4102222982176L455.261120305856 346.4102222982176Q461.9415544838172 346.4102222982176 468.7037898966106 341.31127866034524Q475.4932923876813 336.21233502247276 479.2016150334067 324.2420876586974L479.2016150334067 324.2420876586974Q479.61062120756765 306.57302093494695 483.34621093157034 285.35923403513544L483.34621093157034 285.35923403513544Q467.6403738437922 288.4949480370356 455.86099602795866 300.68333202703013Q444.081618212125 312.8444489387473 444.081618212125 331.3042609325421Z " fill="#000000" transform="matrix(1.1915247415938783,0,0,1.1915247415938783,10.625452619747477,-50.06580385876373)"/><path d="M568.1349944762886 314.3929726691638Q584.349236383554 273.06917558606403 616.7777201980846 245.93284017182134Q649.2062040126152 218.7965047575787 687.2646329338353 218.7965047575787Q725.4356607571891 218.7965047575787 725.4356607571891 260.908494155615Q725.4356607571891 303.13308245578514 698.2993253429464 336.3497585852523Q671.0503910265699 369.56643471471943 643.5762589059259 368.7782423997829L643.5762589059259 368.7782423997829Q594.9335331841299 368.7782423997829 568.1349944762886 314.3929726691638L568.1349944762886 314.3929726691638Z " fill="#000000" transform="matrix(1.1915247415938783,0,0,1.1915247415938783,10.625452619747477,-50.06580385876373)"/></g></svg>